<?xml version="1.0" standalone="no"?>
<!DOCTYPE svg PUBLIC "-//W3C//DTD SVG 20010904//EN"
 "http://www.w3.org/TR/2001/REC-SVG-20010904/DTD/svg10.dtd">
<svg version="1.0" xmlns="http://www.w3.org/2000/svg"
 width="709.000000pt" height="709.000000pt" viewBox="0 0 709.000000 709.000000"
 preserveAspectRatio="xMidYMid meet">
<metadata>
Created by potrace 1.14, written by Peter Selinger 2001-2017
</metadata>
<g transform="translate(0.000000,709.000000) scale(0.100000,-0.100000)"
fill="#000000" stroke="none">
<path d="M3480 7081 c-103 -34 -186 -115 -215 -210 -44 -148 25 -318 155 -376
l40 -18 0 -239 c0 -131 -3 -238 -7 -239 -5 0 -16 -2 -27 -4 -10 -2 -39 -6 -65
-8 -298 -32 -623 -164 -883 -360 -91 -68 -252 -224 -314 -302 -21 -27 -42 -52
-45 -55 -4 -3 -35 -48 -69 -100 -83 -129 -171 -312 -213 -446 -31 -98 -44
-153 -73 -304 -3 -19 -9 -165 -11 -325 -3 -159 -6 -292 -8 -294 -2 -1 -21 -5
-42 -8 -112 -14 -222 -72 -314 -164 -110 -109 -166 -255 -157 -412 1 -35 -1
-69 -7 -73 -5 -5 -57 -50 -115 -99 -58 -50 -118 -102 -135 -117 -16 -16 -33
-28 -37 -28 -5 0 -8 -419 -8 -930 0 -878 -1 -931 -17 -936 -112 -35 -201 -112
-254 -219 -32 -65 -34 -76 -34 -170 1 -91 4 -106 32 -165 76 -161 213 -244
391 -236 68 2 92 8 149 36 79 39 151 108 187 178 34 67 41 102 41 202 -1 74
-5 94 -32 152 -42 89 -120 166 -207 204 l-66 28 1 881 0 880 65 55 c36 30 78
65 94 78 l29 23 13 -24 c33 -61 131 -149 213 -190 53 -26 104 -42 170 -53 22
-3 41 -7 42 -8 1 -1 3 -233 5 -516 l4 -515 27 -90 c78 -255 238 -463 456 -594
76 -46 218 -105 279 -116 15 -2 50 -9 77 -14 28 -5 142 -10 254 -11 113 0 206
-2 208 -3 3 -3 10 -48 17 -107 28 -227 119 -456 228 -575 94 -102 201 -146
341 -138 267 13 428 266 463 728 3 50 7 91 8 92 1 1 94 3 206 3 113 1 228 6
255 11 28 5 59 11 70 13 50 9 186 61 245 93 272 149 457 401 514 703 13 68 16
174 16 606 l0 524 30 1 c17 1 33 2 38 3 4 1 27 6 51 10 60 11 155 56 214 101
28 21 52 33 60 29 17 -11 131 -107 139 -119 4 -5 8 -405 8 -888 0 -827 -1
-878 -17 -883 -53 -15 -134 -64 -176 -107 -155 -155 -154 -411 2 -567 159
-159 413 -159 571 0 201 201 136 544 -124 655 l-66 28 0 922 0 923 -107 93
c-60 51 -112 96 -116 100 -5 3 2 42 16 85 105 335 -119 684 -463 721 -30 3
-56 6 -56 7 -1 0 -4 114 -7 251 -4 201 -9 272 -27 360 -99 501 -390 929 -823
1210 -212 138 -511 245 -757 272 -30 3 -62 7 -70 9 -8 1 -21 3 -27 3 -10 1
-13 57 -13 246 l0 244 28 15 c39 20 96 83 123 136 20 38 24 59 24 135 -1 77
-5 97 -27 140 -57 109 -145 165 -268 171 -41 2 -86 0 -100 -5z m-2389 -6233
c58 -17 123 -85 138 -142 16 -65 14 -95 -13 -151 -54 -117 -187 -157 -300 -90
-118 70 -140 227 -45 325 62 64 136 84 220 58z m5052 -7 c42 -17 101 -83 115
-128 33 -110 -10 -208 -113 -259 -48 -23 -63 -26 -111 -20 -106 12 -179 86
-190 191 -18 160 146 278 299 216z"/>
</g>
</svg>
